G04*
G04 #@! TF.GenerationSoftware,Altium Limited,Altium Designer,20.1.11 (218)*
G04*
G04 Layer_Color=102*
%FSLAX44Y44*%
%MOMM*%
G71*
G04*
G04 #@! TF.SameCoordinates,6F68814C-33D5-4D04-8E5B-489F78E18062*
G04*
G04*
G04 #@! TF.FilePolarity,Positive*
G04*
G01*
G75*
%ADD10C,0.2540*%
%ADD29C,0.1500*%
%ADD30C,0.1524*%
D10*
X-196850Y0D02*
X-3290D01*
X-196850Y279400D02*
X-3290D01*
X-194310Y0D02*
Y139700D01*
Y279400D01*
Y0D02*
X-189230Y15240D01*
X-199390D02*
X-194310Y0D01*
X-199390Y264160D02*
X-194310Y279400D01*
X-189230Y264160D01*
X723900Y-147320D02*
Y-3290D01*
X0Y-147320D02*
Y-3290D01*
X444473Y-144780D02*
X723900D01*
X0D02*
X271299D01*
X708660Y-139700D02*
X723900Y-144780D01*
X708660Y-149860D02*
X723900Y-144780D01*
X0D02*
X15240Y-149860D01*
X0Y-144780D02*
X15240Y-139700D01*
X-234950Y-90175D02*
Y-102871D01*
X-232411Y-105410D01*
X-227332D01*
X-224793Y-102871D01*
Y-90175D01*
X-219715Y-105410D02*
Y-95253D01*
X-212097D01*
X-209558Y-97793D01*
Y-105410D01*
X-204480D02*
X-199401D01*
X-201941D01*
Y-95253D01*
X-204480D01*
X-189245Y-92714D02*
Y-95253D01*
X-191784D01*
X-186706D01*
X-189245D01*
Y-102871D01*
X-186706Y-105410D01*
X-179088D02*
X-171471D01*
X-168931Y-102871D01*
X-171471Y-100332D01*
X-176549D01*
X-179088Y-97793D01*
X-176549Y-95253D01*
X-168931D01*
X-148618D02*
X-146079D01*
Y-97793D01*
X-148618D01*
Y-95253D01*
Y-102871D02*
X-146079D01*
Y-105410D01*
X-148618D01*
Y-102871D01*
X-120687Y-105410D02*
Y-90175D01*
X-115609Y-95253D01*
X-110530Y-90175D01*
Y-105410D01*
X-105452D02*
X-100374D01*
X-102913D01*
Y-95253D01*
X-105452D01*
X-92756Y-105410D02*
X-87678D01*
X-90217D01*
Y-90175D01*
X-92756D01*
X-80060Y-105410D02*
X-72443D01*
X-69903Y-102871D01*
X-72443Y-100332D01*
X-77521D01*
X-80060Y-97793D01*
X-77521Y-95253D01*
X-69903D01*
X251460Y359408D02*
Y374643D01*
X256538Y369565D01*
X261617Y374643D01*
Y359408D01*
X274313D02*
X269234D01*
X266695Y361948D01*
Y367026D01*
X269234Y369565D01*
X274313D01*
X276852Y367026D01*
Y364487D01*
X266695D01*
X292087Y369565D02*
X284469D01*
X281930Y367026D01*
Y361948D01*
X284469Y359408D01*
X292087D01*
X297165Y374643D02*
Y359408D01*
Y367026D01*
X299704Y369565D01*
X304783D01*
X307322Y367026D01*
Y359408D01*
X314939Y369565D02*
X320018D01*
X322557Y367026D01*
Y359408D01*
X314939D01*
X312400Y361948D01*
X314939Y364487D01*
X322557D01*
X327635Y359408D02*
Y369565D01*
X335253D01*
X337792Y367026D01*
Y359408D01*
X342870D02*
X347949D01*
X345410D01*
Y369565D01*
X342870D01*
X365723D02*
X358106D01*
X355566Y367026D01*
Y361948D01*
X358106Y359408D01*
X365723D01*
X373341Y369565D02*
X378419D01*
X380958Y367026D01*
Y359408D01*
X373341D01*
X370801Y361948D01*
X373341Y364487D01*
X380958D01*
X386036Y359408D02*
X391115D01*
X388576D01*
Y374643D01*
X386036D01*
X413967D02*
Y359408D01*
X421585D01*
X424124Y361948D01*
Y372104D01*
X421585Y374643D01*
X413967D01*
X429202Y369565D02*
Y359408D01*
Y364487D01*
X431742Y367026D01*
X434281Y369565D01*
X436820D01*
X446977D02*
X452055D01*
X454594Y367026D01*
Y359408D01*
X446977D01*
X444438Y361948D01*
X446977Y364487D01*
X454594D01*
X459673Y369565D02*
Y361948D01*
X462212Y359408D01*
X464751Y361948D01*
X467290Y359408D01*
X469829Y361948D01*
Y369565D01*
X474908Y359408D02*
X479986D01*
X477447D01*
Y369565D01*
X474908D01*
X487604Y359408D02*
Y369565D01*
X495221D01*
X497760Y367026D01*
Y359408D01*
X507917Y354330D02*
X510456D01*
X512995Y356869D01*
Y369565D01*
X505378D01*
X502839Y367026D01*
Y361948D01*
X505378Y359408D01*
X512995D01*
D29*
X0Y0D02*
Y279400D01*
Y0D02*
X723900D01*
X0D02*
X723900D01*
Y279400D01*
X0D02*
X723900D01*
X0D02*
X723900D01*
X0Y0D02*
Y279400D01*
X723900Y0D02*
Y279400D01*
D30*
X-217671Y55652D02*
Y60730D01*
Y58191D01*
X-232906D01*
X-230367Y55652D01*
X-217671Y68348D02*
Y73426D01*
Y70887D01*
X-232906D01*
X-230367Y68348D01*
Y81044D02*
X-232906Y83583D01*
Y88661D01*
X-230367Y91200D01*
X-220211D01*
X-217671Y88661D01*
Y83583D01*
X-220211Y81044D01*
X-230367D01*
Y96279D02*
X-232906Y98818D01*
Y103896D01*
X-230367Y106435D01*
X-220211D01*
X-217671Y103896D01*
Y98818D01*
X-220211Y96279D01*
X-230367D01*
X-215132Y114053D02*
X-217671Y116592D01*
X-220211D01*
Y114053D01*
X-217671D01*
Y116592D01*
X-215132Y114053D01*
X-212593Y111514D01*
X-230367Y126749D02*
X-232906Y129288D01*
Y134366D01*
X-230367Y136906D01*
X-220211D01*
X-217671Y134366D01*
Y129288D01*
X-220211Y126749D01*
X-230367D01*
X-217671Y162297D02*
X-222750Y157219D01*
X-227828D01*
X-232906Y162297D01*
X-217671Y169915D02*
X-227828D01*
Y172454D01*
X-225289Y174993D01*
X-217671D01*
X-225289D01*
X-227828Y177532D01*
X-225289Y180072D01*
X-217671D01*
Y185150D02*
Y190228D01*
Y187689D01*
X-227828D01*
Y185150D01*
X-217671Y197846D02*
Y202924D01*
Y200385D01*
X-232906D01*
Y197846D01*
X-217671Y210542D02*
X-222750Y215620D01*
X-227828D01*
X-232906Y210542D01*
X285519Y-156461D02*
X275363D01*
X285519Y-146304D01*
Y-143765D01*
X282980Y-141226D01*
X277902D01*
X275363Y-143765D01*
X290598D02*
X293137Y-141226D01*
X298215D01*
X300755Y-143765D01*
Y-146304D01*
X298215Y-148843D01*
X300755Y-151382D01*
Y-153921D01*
X298215Y-156461D01*
X293137D01*
X290598Y-153921D01*
Y-151382D01*
X293137Y-148843D01*
X290598Y-146304D01*
Y-143765D01*
X293137Y-148843D02*
X298215D01*
X315990Y-141226D02*
X305833D01*
Y-148843D01*
X310911Y-146304D01*
X313450D01*
X315990Y-148843D01*
Y-153921D01*
X313450Y-156461D01*
X308372D01*
X305833Y-153921D01*
X321068Y-143765D02*
X323607Y-141226D01*
X328685D01*
X331225Y-143765D01*
Y-153921D01*
X328685Y-156461D01*
X323607D01*
X321068Y-153921D01*
Y-143765D01*
X338842Y-159000D02*
X341381Y-156461D01*
Y-153921D01*
X338842D01*
Y-156461D01*
X341381D01*
X338842Y-159000D01*
X336303Y-161539D01*
X351538Y-143765D02*
X354077Y-141226D01*
X359156D01*
X361695Y-143765D01*
Y-153921D01*
X359156Y-156461D01*
X354077D01*
X351538Y-153921D01*
Y-143765D01*
X387087Y-156461D02*
X382008Y-151382D01*
Y-146304D01*
X387087Y-141226D01*
X394704Y-156461D02*
Y-146304D01*
X397243D01*
X399782Y-148843D01*
Y-156461D01*
Y-148843D01*
X402322Y-146304D01*
X404861Y-148843D01*
Y-156461D01*
X409939D02*
X415018D01*
X412478D01*
Y-146304D01*
X409939D01*
X422635Y-156461D02*
X427713D01*
X425174D01*
Y-141226D01*
X422635D01*
X435331Y-156461D02*
X440409Y-151382D01*
Y-146304D01*
X435331Y-141226D01*
M02*
