G04*
G04 #@! TF.GenerationSoftware,Altium Limited,Altium Designer,20.1.11 (218)*
G04*
G04 Layer_Color=65535*
%FSLAX44Y44*%
%MOMM*%
G71*
G04*
G04 #@! TF.SameCoordinates,6F68814C-33D5-4D04-8E5B-489F78E18062*
G04*
G04*
G04 #@! TF.FilePolarity,Positive*
G04*
G01*
G75*
%ADD10C,0.2540*%
%ADD11C,0.1900*%
%ADD12C,0.2000*%
D10*
X59690Y135890D02*
X73660Y121920D01*
X152400D01*
X166370Y135890D01*
X59690Y262890D02*
Y265430D01*
X166370D01*
Y261620D02*
Y265430D01*
Y135890D02*
Y261620D01*
X59690Y135890D02*
Y262890D01*
X295910Y116840D02*
Y217170D01*
X321310Y262890D02*
X472440D01*
X295910Y237490D02*
X321310Y262890D01*
X295910Y217170D02*
Y237490D01*
Y116840D02*
X449580D01*
X472440Y128270D02*
Y262890D01*
X461010Y116840D02*
X472440Y128270D01*
X449580Y116840D02*
X461010D01*
X170740Y130790D02*
X291390D01*
Y259060D01*
X170740Y261600D02*
X288850D01*
X291390Y259060D01*
X170740Y130790D02*
Y261600D01*
X299720Y60170D02*
Y105890D01*
X325120D01*
Y60170D02*
Y105890D01*
X299720Y60170D02*
X325120D01*
X478790Y224790D02*
Y255270D01*
X488950Y265430D01*
X676910D01*
X478790Y17780D02*
Y224790D01*
Y15240D02*
X673100D01*
X478790D02*
Y17780D01*
X676910Y15240D02*
Y265430D01*
X673100Y15240D02*
X676910D01*
X434340Y104140D02*
X450850D01*
X353060D02*
X434340D01*
X450850Y52070D02*
Y104140D01*
X353060Y52070D02*
Y104140D01*
Y52070D02*
X450850D01*
X180340Y81280D02*
X276860D01*
Y53340D02*
Y81280D01*
X275590Y52070D02*
X276860Y53340D01*
X177800Y52070D02*
X275590D01*
X177800D02*
Y81280D01*
X180340D01*
X20320Y195580D02*
X43180D01*
X20320D02*
Y242570D01*
X44450D01*
Y196850D02*
Y242570D01*
X43180Y195580D02*
X44450Y196850D01*
X688340Y170180D02*
X711200D01*
Y123190D02*
Y170180D01*
X687070Y123190D02*
X711200D01*
X687070D02*
Y168910D01*
X688340Y170180D01*
X16147Y38096D02*
Y22859D01*
X16872Y38096D02*
X21226Y25036D01*
X16147Y38096D02*
X21226Y22859D01*
X26305Y38096D02*
X21226Y22859D01*
X26305Y38096D02*
Y22859D01*
X27030Y38096D02*
Y22859D01*
X13970Y38096D02*
X16872D01*
X26305D02*
X29207D01*
X13970Y22859D02*
X18323D01*
X24128D02*
X29207D01*
X31674Y28663D02*
X40380D01*
Y30115D01*
X39655Y31566D01*
X38929Y32291D01*
X37478Y33017D01*
X35301D01*
X33125Y32291D01*
X31674Y30840D01*
X30948Y28663D01*
Y27212D01*
X31674Y25036D01*
X33125Y23584D01*
X35301Y22859D01*
X36753D01*
X38929Y23584D01*
X40380Y25036D01*
X39655Y28663D02*
Y30840D01*
X38929Y32291D01*
X35301Y33017D02*
X33850Y32291D01*
X32399Y30840D01*
X31674Y28663D01*
Y27212D01*
X32399Y25036D01*
X33850Y23584D01*
X35301Y22859D01*
X44879Y38096D02*
Y22859D01*
X45604Y38096D02*
Y22859D01*
Y30840D02*
X47056Y32291D01*
X49232Y33017D01*
X50683D01*
X52860Y32291D01*
X53586Y30840D01*
Y22859D01*
X50683Y33017D02*
X52134Y32291D01*
X52860Y30840D01*
Y22859D01*
X42702Y38096D02*
X45604D01*
X42702Y22859D02*
X47781D01*
X50683D02*
X55762D01*
X66428Y38096D02*
Y22859D01*
X67154Y38096D02*
Y22859D01*
X66428Y30840D02*
X64977Y32291D01*
X63526Y33017D01*
X62075D01*
X59898Y32291D01*
X58447Y30840D01*
X57721Y28663D01*
Y27212D01*
X58447Y25036D01*
X59898Y23584D01*
X62075Y22859D01*
X63526D01*
X64977Y23584D01*
X66428Y25036D01*
X62075Y33017D02*
X60623Y32291D01*
X59172Y30840D01*
X58447Y28663D01*
Y27212D01*
X59172Y25036D01*
X60623Y23584D01*
X62075Y22859D01*
X64251Y38096D02*
X67154D01*
X66428Y22859D02*
X69330D01*
X73611Y38096D02*
X72885Y37370D01*
X73611Y36644D01*
X74337Y37370D01*
X73611Y38096D01*
Y33017D02*
Y22859D01*
X74337Y33017D02*
Y22859D01*
X71434Y33017D02*
X74337D01*
X71434Y22859D02*
X76513D01*
X95160Y38096D02*
Y22859D01*
X95886Y38096D02*
Y22859D01*
X105318Y38096D02*
X95886Y28663D01*
X99513Y31566D02*
X105318Y22859D01*
X98788Y31566D02*
X104592Y22859D01*
X92983Y38096D02*
X98062D01*
X102416D02*
X106769D01*
X92983Y22859D02*
X98062D01*
X102416D02*
X106769D01*
X110832Y38096D02*
Y22859D01*
X111558Y38096D02*
Y22859D01*
Y30840D02*
X113009Y32291D01*
X115185Y33017D01*
X116636D01*
X118813Y32291D01*
X119539Y30840D01*
Y22859D01*
X116636Y33017D02*
X118088Y32291D01*
X118813Y30840D01*
Y22859D01*
X108655Y38096D02*
X111558D01*
X108655Y22859D02*
X113734D01*
X116636D02*
X121715D01*
X124400Y17780D02*
X136735D01*
X140870Y38096D02*
Y22859D01*
X141596Y38096D02*
Y22859D01*
X138694Y38096D02*
X145949D01*
X148126Y37370D01*
X149577Y35919D01*
X150302Y34468D01*
X151028Y32291D01*
Y28663D01*
X150302Y26487D01*
X149577Y25036D01*
X148126Y23584D01*
X145949Y22859D01*
X138694D01*
X145949Y38096D02*
X147400Y37370D01*
X148851Y35919D01*
X149577Y34468D01*
X150302Y32291D01*
Y28663D01*
X149577Y26487D01*
X148851Y25036D01*
X147400Y23584D01*
X145949Y22859D01*
X153785Y28663D02*
X162492D01*
Y30115D01*
X161766Y31566D01*
X161041Y32291D01*
X159590Y33017D01*
X157413D01*
X155236Y32291D01*
X153785Y30840D01*
X153060Y28663D01*
Y27212D01*
X153785Y25036D01*
X155236Y23584D01*
X157413Y22859D01*
X158864D01*
X161041Y23584D01*
X162492Y25036D01*
X161766Y28663D02*
Y30840D01*
X161041Y32291D01*
X157413Y33017D02*
X155962Y32291D01*
X154511Y30840D01*
X153785Y28663D01*
Y27212D01*
X154511Y25036D01*
X155962Y23584D01*
X157413Y22859D01*
X172069Y31566D02*
X172795Y33017D01*
Y30115D01*
X172069Y31566D01*
X171344Y32291D01*
X169893Y33017D01*
X166990D01*
X165539Y32291D01*
X164814Y31566D01*
Y30115D01*
X165539Y29389D01*
X166990Y28663D01*
X170618Y27212D01*
X172069Y26487D01*
X172795Y25761D01*
X164814Y30840D02*
X165539Y30115D01*
X166990Y29389D01*
X170618Y27938D01*
X172069Y27212D01*
X172795Y26487D01*
Y24310D01*
X172069Y23584D01*
X170618Y22859D01*
X167716D01*
X166265Y23584D01*
X165539Y24310D01*
X164814Y25761D01*
Y22859D01*
X165539Y24310D01*
X177438Y38096D02*
X176713Y37370D01*
X177438Y36644D01*
X178164Y37370D01*
X177438Y38096D01*
Y33017D02*
Y22859D01*
X178164Y33017D02*
Y22859D01*
X175262Y33017D02*
X178164D01*
X175262Y22859D02*
X180341D01*
X187451Y33017D02*
X186000Y32291D01*
X185274Y31566D01*
X184549Y30115D01*
Y28663D01*
X185274Y27212D01*
X186000Y26487D01*
X187451Y25761D01*
X188902D01*
X190353Y26487D01*
X191079Y27212D01*
X191804Y28663D01*
Y30115D01*
X191079Y31566D01*
X190353Y32291D01*
X188902Y33017D01*
X187451D01*
X186000Y32291D02*
X185274Y30840D01*
Y27938D01*
X186000Y26487D01*
X190353D02*
X191079Y27938D01*
Y30840D01*
X190353Y32291D01*
X191079Y31566D02*
X191804Y32291D01*
X193256Y33017D01*
Y32291D01*
X191804D01*
X185274Y27212D02*
X184549Y26487D01*
X183823Y25036D01*
Y24310D01*
X184549Y22859D01*
X186726Y22133D01*
X190353D01*
X192530Y21408D01*
X193256Y20682D01*
X183823Y24310D02*
X184549Y23584D01*
X186726Y22859D01*
X190353D01*
X192530Y22133D01*
X193256Y20682D01*
Y19957D01*
X192530Y18506D01*
X190353Y17780D01*
X186000D01*
X183823Y18506D01*
X183098Y19957D01*
Y20682D01*
X183823Y22133D01*
X186000Y22859D01*
X197682Y33017D02*
Y22859D01*
X198407Y33017D02*
Y22859D01*
Y30840D02*
X199858Y32291D01*
X202035Y33017D01*
X203486D01*
X205663Y32291D01*
X206388Y30840D01*
Y22859D01*
X203486Y33017D02*
X204937Y32291D01*
X205663Y30840D01*
Y22859D01*
X195505Y33017D02*
X198407D01*
X195505Y22859D02*
X200584D01*
X203486D02*
X208565D01*
D11*
X171198Y274509D02*
Y267844D01*
X172531Y266511D01*
X175197D01*
X176530Y267844D01*
Y274509D01*
X179196Y266511D02*
X181862D01*
X180529D01*
Y274509D01*
X179196Y273176D01*
X294829Y60645D02*
X286831D01*
Y64644D01*
X288164Y65977D01*
X290830D01*
X292163Y64644D01*
Y60645D01*
Y63311D02*
X294829Y65977D01*
Y73974D02*
Y68643D01*
X289497Y73974D01*
X288164D01*
X286831Y72642D01*
Y69976D01*
X288164Y68643D01*
X333758Y102681D02*
Y110679D01*
X337757D01*
X339090Y109346D01*
Y106680D01*
X337757Y105347D01*
X333758D01*
X336424D02*
X339090Y102681D01*
X341756D02*
X344422D01*
X343089D01*
Y110679D01*
X341756Y109346D01*
X321058Y275779D02*
Y267781D01*
X326390D01*
X329056D02*
X331722D01*
X330389D01*
Y275779D01*
X329056Y274446D01*
X161038Y85279D02*
Y77281D01*
X165037D01*
X166370Y78614D01*
Y83946D01*
X165037Y85279D01*
X161038D01*
X169036Y77281D02*
X171702D01*
X170369D01*
Y85279D01*
X169036Y83946D01*
X495577Y276555D02*
X494731Y277401D01*
X493038D01*
X492192Y276555D01*
Y273169D01*
X493038Y272323D01*
X494731D01*
X495577Y273169D01*
X500656Y272323D02*
X497270D01*
X500656Y275708D01*
Y276555D01*
X499809Y277401D01*
X498116D01*
X497270Y276555D01*
X166370Y120776D02*
X165037Y122109D01*
X162371D01*
X161038Y120776D01*
Y115444D01*
X162371Y114111D01*
X165037D01*
X166370Y115444D01*
X169036Y114111D02*
X171702D01*
X170369D01*
Y122109D01*
X169036Y120776D01*
D12*
X689273Y185879D02*
X687774Y187379D01*
X684775D01*
X683275Y185879D01*
Y179881D01*
X684775Y178382D01*
X687774D01*
X689273Y179881D01*
X693772Y178382D02*
X696771D01*
X698270Y179881D01*
Y182880D01*
X696771Y184380D01*
X693772D01*
X692272Y182880D01*
Y179881D01*
X693772Y178382D01*
X701270D02*
Y184380D01*
X705768D01*
X707268Y182880D01*
Y178382D01*
X716265D02*
X710267D01*
X716265Y184380D01*
Y185879D01*
X714765Y187379D01*
X711766D01*
X710267Y185879D01*
X22753Y258269D02*
X21253Y259769D01*
X18254D01*
X16755Y258269D01*
Y252271D01*
X18254Y250772D01*
X21253D01*
X22753Y252271D01*
X27252Y250772D02*
X30250D01*
X31750Y252271D01*
Y255270D01*
X30250Y256770D01*
X27252D01*
X25752Y255270D01*
Y252271D01*
X27252Y250772D01*
X34749D02*
Y256770D01*
X39248D01*
X40747Y255270D01*
Y250772D01*
X43746D02*
X46745D01*
X45246D01*
Y259769D01*
X43746Y258269D01*
M02*
